<svg xmlns="http://www.w3.org/2000/svg" version="1.1" viewBox="0 752 1996 495">
<path transform="translate(272,882)" d="m0 0h167l10 2 9 5 6 5 6 10 2 6 1 22v198l-1 25-5 1h-432l-6-1-1-3v-239l4-13 11-12 6-3h8l3 1-1 6-2 6v7l3 9 4 6 18 18 8 4 4 1h7l12-3 2 2 3 7 5 6 9 4 5 1h29l9-3 8-7 4-9 3-1 10 3-1 3-11 7-15 15-9 14-5 10-5 16-2 13v16l3 17 5 15 8 14 8 10 4 4v2l4 2 10 8 14 8 16 6 10 2 11 1h10l19-3 17-6 17-10 13-12 11-14 8-16 5-17 1-7v-24l-4-18-7-16-6-10-9-11-10-9-14-9-10-5-19-5-9-1h-20l-10 2h-4l2-4 10-9 7-11 1-5v-7l-3-8v-5l6-2 2-1zm-152 99-8 7-3 2v2l-4 2-16 16v2l-4 2-10 10-3 4 2 5 5 6 8 7 13 13 5 6 8 7 6 5 5-1 4-4-2-5-36-36 1-4 36-36 1-4-5-6zm264 0-4 7 6 8 11 11h2l2 4h2v2l8 7 8 9-6 7-32 32-1 4 5 5 6-1 45-45-1-4-5-7-8-7-7-7-5-6-8-7-11-11z" fill="#FEFDFD"/>
<path transform="translate(22,1168)" d="m0 0h157l1 1 1 23 4 11 5 6 9 5 9 2h84l10-2 8-5 6-7 3-6 1-7 1-21h156l9 3 8 6 5 9 2 9v25l-2 10-6 9-6 5-7 3h-460l-11-6-9-12v-42l8-11 10-7z" fill="#FEFDFD"/>
<path transform="translate(135,752)" d="m0 0h30l6 3 4 6 1 7v10l10 2 7-7 8-4 6 1 9 6 13 13 3 5 1 5-3 7-7 8-2 4 4 6v2h14l6 3 3 4 1 3v30l-4 6-5 3-14 1-4 7 1 4 7 8 2 5-1 7-6 8-11 12-6 4h-9l-6-3-6-6-5 1-5 2-1 3v9l-3 7-3 3-9 2h-23l-6-2-5-5-2-6v-12l-6-2-4-1-9 8-4 2h-8l-6-4-17-17-3-8 3-9 7-7 1-3-4-8h-10l-7-2-6-7-1-5v-20l2-9 5-5 7-2h9l5-5v-5l-8-8-3-7 1-7 7-9 9-9 9-6h7l6 3 6 5v2l5 1 6-3 1-6v-8l4-7zm6 49-12 4-10 6-9 9-8 16-1 5v19l4 12 6 9 5 6 10 7 9 4 11 2h10l15-4 10-6 7-6 7-10 4-11 1-4v-18l-4-12-7-11-7-7-12-7-11-3z" fill="#FEFDFD"/>
<path transform="translate(1484,981)" d="m0 0h22l2 2 20 89 9 41 2 2 5-23 23-92 4-17 2-2h24l3 3 10 43 11 47 7 29 2 13 2-1 10-45 10-43 9-38 2-7 4-1h20l1 2-12 42-20 73-10 36-3 1h-24l-3-7-30-120-2-1-2 12-20 79-9 35-2 2h-24l-3-3-20-72-20-73-1-5z" fill="#FEFDFD"/>
<path transform="translate(1386,923)" d="m0 0 3 1v210h-19l-3-21-8 6-9 8-14 7-13 3h-14l-14-3-13-7-11-11-6-10-6-15-3-14-1-7v-27l4-18 5-13 7-11 9-10 10-7 10-4 5-1h21l15 4 11 6 11 9 1-70 6-2zm-72 73-10 2-10 6-6 8-4 8-4 15-1 8v31l3 16 5 12 6 8 8 6 9 3h17l14-4 11-6 9-7 3-3v-82l-8-7-14-8-11-4-12-2z" fill="#FEFDFD"/>
<path transform="translate(1885,923)" d="m0 0 3 1-1 75 12-9 12-7 13-4h21l14 4 10 5 12 11 8 14 5 17 2 17v16l-2 18-5 19-6 12-7 9-8 7-10 5-11 3-6 1h-14l-13-3-14-8-10-9-6-5-1 13-2 9-1 1h-15l-2-1-1-205 2-2zm47 73-16 3-16 8-12 8-1 3v80l5 5 10 7 12 6 11 3h16l11-4 9-8 7-14 3-15 1-8v-29l-2-14-5-13-6-8-6-5-10-4z" fill="#FEFDFD"/>
<path transform="translate(674,924)" d="m0 0h27l18 3 20 7 11 6 1 3-2 6-2 10-6-2-14-6-17-5-15-2h-9l-16 2-11 4-7 6-4 9-1 5v10l3 9 4 6 9 6 12 5 40 14 19 9 11 8 7 7 6 10 4 9 2 9v16l-4 16-7 12-9 9-14 8-16 5-14 2h-21l-18-3-17-5-13-5-2-2 2-18 2-1 14 6 16 5 13 2h23l15-3 10-5 4-4h2l2-4 4-11 1-13-2-11-5-9-5-5-5-4-14-7-43-15-17-8-13-10-8-11-4-9-1-4v-19l4-13 6-10 7-7 10-6 10-4z" fill="#FEFDFD"/>
<path transform="translate(983,979)" d="m0 0h31l17 4 11 7 7 8 5 12 2 11 1 12v101h-18l-1-1-2-15v-6l-5 5-10 9-16 8-15 3h-18l-16-4-10-6-7-7-7-14-2-9v-14l4-14 9-13 9-7 10-5 13-3h26l20 3 11 3-1-24-2-11-5-8-6-4-8-2-14-1-16 2-13 4-16 8-4-1-6-11-1-4 17-9 15-5zm4 78-15 3-9 6-6 9-2 9v10l3 11 4 6 6 5 9 3h19l12-3 11-6 12-9 1-1v-40l-1-1-21-2z" fill="#FEFDFD"/>
<path transform="translate(1164,979)" d="m0 0h21l13 4 9 6 8 9 5 11 3 14 1 111-2 1h-23l-1-96-1-16-3-10-5-8-8-6-4-1h-16l-13 4-19 10-9 7-1 115-3 1h-21l-1-1v-152l3-1 16 1 1 5 1 18 14-11 14-8 12-5z" fill="#FEFDFD"/>
<path transform="translate(1761,979)" d="m0 0h23l15 4 12 7 9 9 7 12 4 13 2 15v12l-1 9h-101l4 27 5 13 7 9 10 6 10 3h20l12-3 11-6 5-4h4l4 10 2 3-1 5-12 6-18 6-13 2h-15l-15-3-9-4-10-6-10-10-8-14-5-15-2-11v-29l3-16 7-17 8-12 9-9 11-7 11-4zm4 18-11 4-10 9-6 9-4 11-2 8v7h79l-1-16-4-13-6-9-7-6-10-4z" fill="#FEFDFD"/>
<path transform="translate(846,979)" d="m0 0h24l16 4 12 5 9 6 1 2-5 11-2 4-5-2-10-6-16-5h-18l-13 4-9 6-7 8-4 9-3 14-1 14 1 23 4 16 6 12 5 6 10 6 7 2h19l13-3 13-7 6-5h2l5 12 2 5-13 8-15 6-16 3h-17l-14-3-14-7-10-9-6-7-8-16-4-14-2-16v-11l2-17 5-16 7-14 8-10 8-7 12-7z" fill="#FEFDFD"/>
<path transform="translate(146,813)" d="m0 0h8l12 3 9 6 8 9 4 10 1 6v8l-2 8-5 10-7 7-12 6-4 1h-16l-10-4-8-6-6-7-4-9-1-5v-13l4-10 8-11 10-6 5-2z" fill="#FEFDFD"/>
<path transform="translate(193,1168)" d="m0 0h114l1 1v23l-4 7-5 4-3 1h-92l-7-4-4-6-1-4v-21z" fill="#FEFDFD"/>
<path transform="translate(1450,981)" d="m0 0 4 1 1 2v149l-4 2h-20l-1-140v-12l1-1z" fill="#FEFDFD"/>
<path transform="translate(256,1035)" d="m0 0h35v16l-2 14-2 2-25 2h-6l-1-1v-32z" fill="#FEFDFD"/>
<path transform="translate(256,989)" d="m0 0 31 2 2 2 2 15v15h-35l-1-1v-31z" fill="#FEFDFD"/>
<path transform="translate(213,1035)" d="m0 0h29l1 1v32l-1 1-27-2-2-7-1-10v-14z" fill="#FEFDFD"/>
<path transform="translate(232,990)" d="m0 0h11v32l-1 1h-30v-16l2-14 6-2z" fill="#FEFDFD"/>
<path transform="translate(283,1079)" d="m0 0h3l-1 7-6 18-3 6-6 2-9 2h-5l-1-1v-31l1-1z" fill="#FEFDFD"/>
<path transform="translate(256,945)" d="m0 0 12 1 9 3 6 15 3 10v5l-30-2-1-1v-29z" fill="#FEFDFD"/>
<path transform="translate(165,1035)" d="m0 0h33l1 1 2 20v7l-8-1-18-6-8-4-2-5-1-11z" fill="#FEFDFD"/>
<path transform="translate(198,995)" d="m0 0h3l-1 19-1 8-1 1h-34l1-12 3-5 8-4 15-5z" fill="#FEFDFD"/>
<path transform="translate(310,1035)" d="m0 0h24v9l-3 10-5 3-19 6h-5l1-21 1-6z" fill="#FEFDFD"/>
<path transform="translate(302,995)" d="m0 0 16 4 12 4 3 7 2 12-2 1h-29l-1-6z" fill="#FEFDFD"/>
<path transform="translate(1440,928)" d="m0 0 8 1 6 4 3 5v10l-4 6-6 4-4 1-7-2-5-4-3-6v-7l3-6 6-5z" fill="#FEFDFD"/>
<path transform="translate(217,1079)" d="m0 0 25 2 1 1v32l-11-1-5-3-5-11-5-16z" fill="#FEFDFD"/>
<path transform="translate(236,945)" d="m0 0h7v31l-1 1-18 2h-7l1-7 5-15 5-10z" fill="#FEFDFD"/>
<path transform="translate(174,1069)" d="m0 0 6 1 13 4 9 2 3 5 5 18 1 6-7-3-12-9-7-7-10-13z" fill="#FEFDFD"/>
<path transform="translate(209,953)" d="m0 0h2l-2 9-5 18-2 2-28 7 2-5 9-11 4-5 11-9z" fill="#FEFDFD"/>
<path transform="translate(293,957)" d="m0 0 4 1 14 12 10 12 2 5-11-2-12-3-3-9z" fill="#FEFDFD"/>
<path transform="translate(321,1071)" d="m0 0 3 1-8 11-13 13-7 5-3-1 6-22 2-2 17-4z" fill="#FEFDFD"/>
</svg>